<?xml version="1.0" standalone="no"?>
<!DOCTYPE svg PUBLIC "-//W3C//DTD SVG 20010904//EN"
 "http://www.w3.org/TR/2001/REC-SVG-20010904/DTD/svg10.dtd">
<svg version="1.0" xmlns="http://www.w3.org/2000/svg"
 width="700.000000pt" height="700.000000pt" viewBox="0 0 700.000000 700.000000"
 preserveAspectRatio="xMidYMid meet">
<metadata>
Created by potrace 1.14, written by Peter Selinger 2001-2017
</metadata>
<g transform="translate(0.000000,700.000000) scale(0.100000,-0.100000)"
fill="#000000" stroke="none">
<path d="M747 6990 c-340 -58 -608 -296 -714 -637 l-28 -88 0 -2765 0 -2765
28 -90 c96 -306 306 -516 614 -612 l88 -28 2765 0 2765 0 88 28 c310 97 517
304 614 614 l28 88 0 2765 0 2765 -28 88 c-96 308 -306 518 -614 614 l-88 28
-2735 1 c-1504 1 -2757 -2 -2783 -6z m1671 -843 c52 -517 360 -913 794 -1017
46 -11 107 -20 136 -20 l52 0 0 -2190 0 -2190 -600 0 -600 0 0 153 c0 194 -16
545 -35 802 -94 1227 -369 2136 -813 2686 -243 301 -583 507 -869 526 l-83 6
0 683 0 684 1003 0 1003 0 12 -123z m4182 -562 l0 -685 -59 0 c-78 0 -231 -40
-342 -89 -183 -81 -402 -255 -551 -440 -522 -646 -810 -1785 -845 -3344 l-6
-297 -599 0 -598 0 0 2190 0 2190 49 0 c119 0 297 58 421 138 295 190 482 529
515 935 l7 87 1004 0 1004 0 0 -685z"/>
</g>
</svg>
