<?xml version="1.0"?>


<svg version="1.1" id="svg1" width="247.51868" height="53.418518" viewBox="0 0 247.51868 53.418518" xmlns:inkscape="http://www.inkscape.org/namespaces/inkscape" xmlns:sodipodi="http://sodipodi.sourceforge.net/DTD/sodipodi-0.dtd" xmlns="http://www.w3.org/2000/svg" xmlns:svg="http://www.w3.org/2000/svg">
  <defs id="defs1">
    <clipPath clipPathUnits="userSpaceOnUse" id="clipPath16">
      <path d="M 0,792 H 1224 V 0 H 0 Z" transform="translate(-369.30031,-372.08161)" id="path16"></path>
    </clipPath>
    <clipPath clipPathUnits="userSpaceOnUse" id="clipPath20">
      <path d="M 0,792 H 1224 V 0 H 0 Z" transform="translate(-344.38071,-372.08161)" id="path20"></path>
    </clipPath>
    <clipPath clipPathUnits="userSpaceOnUse" id="clipPath24">
      <path d="M 0,792 H 1224 V 0 H 0 Z" transform="translate(-397.01611,-337.23091)" id="path24"></path>
    </clipPath>
    <clipPath clipPathUnits="userSpaceOnUse" id="clipPath26">
      <path d="M 0,792 H 1224 V 0 H 0 Z" transform="translate(-416.71431,-346.53921)" id="path26"></path>
    </clipPath>
    <clipPath clipPathUnits="userSpaceOnUse" id="clipPath28">
      <path d="M 0,792 H 1224 V 0 H 0 Z" transform="translate(-433.32921,-338.08651)" id="path28"></path>
    </clipPath>
    <clipPath clipPathUnits="userSpaceOnUse" id="clipPath30">
      <path d="M 0,792 H 1224 V 0 H 0 Z" id="path30"></path>
    </clipPath>
    <clipPath clipPathUnits="userSpaceOnUse" id="clipPath32">
      <path d="M 0,792 H 1224 V 0 H 0 Z" transform="translate(-469.17941,-341.83741)" id="path32"></path>
    </clipPath>
    <clipPath clipPathUnits="userSpaceOnUse" id="clipPath34">
      <path d="M 0,792 H 1224 V 0 H 0 Z" transform="translate(-501.18511,-347.82061)" id="path34"></path>
    </clipPath>
    <clipPath clipPathUnits="userSpaceOnUse" id="clipPath36">
      <path d="M 0,792 H 1224 V 0 H 0 Z" transform="translate(-512.47181,-338.08651)" id="path36"></path>
    </clipPath>
    <clipPath clipPathUnits="userSpaceOnUse" id="clipPath38">
      <path d="M 0,792 H 1224 V 0 H 0 Z" id="path38"></path>
    </clipPath>
    <clipPath clipPathUnits="userSpaceOnUse" id="clipPath40">
      <path d="M 0,792 H 1224 V 0 H 0 Z" transform="translate(-425.26121,-375.14971)" id="path40"></path>
    </clipPath>
    <clipPath clipPathUnits="userSpaceOnUse" id="clipPath42">
      <path d="M 0,792 H 1224 V 0 H 0 Z" transform="translate(-443.00741,-368.38481)" id="path42"></path>
    </clipPath>
    <clipPath clipPathUnits="userSpaceOnUse" id="clipPath44">
      <path d="M 0,792 H 1224 V 0 H 0 Z" transform="translate(-457.76431,-364.30091)" id="path44"></path>
    </clipPath>
    <clipPath clipPathUnits="userSpaceOnUse" id="clipPath46">
      <path d="M 0,792 H 1224 V 0 H 0 Z" transform="translate(-470.94531,-372.56471)" id="path46"></path>
    </clipPath>
    <clipPath clipPathUnits="userSpaceOnUse" id="clipPath48">
      <path d="M 0,792 H 1224 V 0 H 0 Z" transform="translate(-484.38481,-355.52761)" id="path48"></path>
    </clipPath>
    <clipPath clipPathUnits="userSpaceOnUse" id="clipPath50">
      <path d="M 0,792 H 1224 V 0 H 0 Z" transform="translate(-504.60742,-355.52761)" id="path50"></path>
    </clipPath>
    <clipPath clipPathUnits="userSpaceOnUse" id="clipPath421">
      <path d="M 0,792 H 1224 V 0 H 0 Z" id="path421"></path>
    </clipPath>
    <clipPath clipPathUnits="userSpaceOnUse" id="clipPath423">
      <path d="M 0,792 H 1224 V 0 H 0 Z" transform="translate(-425.26121,-375.19271)" id="path423"></path>
    </clipPath>
    <clipPath clipPathUnits="userSpaceOnUse" id="clipPath425">
      <path d="M 0,792 H 1224 V 0 H 0 Z" transform="translate(-443.00741,-368.42791)" id="path425"></path>
    </clipPath>
    <clipPath clipPathUnits="userSpaceOnUse" id="clipPath427">
      <path d="M 0,792 H 1224 V 0 H 0 Z" transform="translate(-457.76431,-364.34401)" id="path427"></path>
    </clipPath>
    <clipPath clipPathUnits="userSpaceOnUse" id="clipPath429">
      <path d="M 0,792 H 1224 V 0 H 0 Z" transform="translate(-470.94531,-372.60771)" id="path429"></path>
    </clipPath>
    <clipPath clipPathUnits="userSpaceOnUse" id="clipPath431">
      <path d="M 0,792 H 1224 V 0 H 0 Z" transform="translate(-484.38481,-355.57061)" id="path431"></path>
    </clipPath>
    <clipPath clipPathUnits="userSpaceOnUse" id="clipPath433">
      <path d="M 0,792 H 1224 V 0 H 0 Z" transform="translate(-527.12572,-373.34231)" id="path433"></path>
    </clipPath>
  </defs>
  <namedview id="namedview1" pagecolor="#ffffff" bordercolor="#000000" borderopacity="0.25" showgrid="false"></namedview>
  <g id="layer-MC3" transform="translate(-459.17426,-554.98627)">
    <path id="path15" d="m 0,0 v -0.046 c 0,-3.809 -2.638,-6.896 -5.901,-6.896 v -26.065 h 7.15 C 1.333,-7.246 11.975,-8.149 11.975,-8.149 V 0 Z" style="fill:#ffffff;fill-opacity:1;fill-rule:nonzero;stroke:none" transform="matrix(1.3333333,0,0,-1.3333333,492.4004,559.8912)" clip-path="url(#clipPath16)"></path>
    <path id="path19" d="m 0,0 v -8.149 c 0,0 10.636,0.903 10.72,-24.858 h 7.15 v 26.065 c -3.261,0 -5.901,3.087 -5.901,6.896 0,0.013 0.002,0.032 0.002,0.046 z" style="fill:#ffffff;fill-opacity:1;fill-rule:nonzero;stroke:none" transform="matrix(1.3333333,0,0,-1.3333333,459.17427,559.8912)" clip-path="url(#clipPath20)"></path>
    <path id="path23" d="M 0,0 C 2.799,0 5.03,2.059 5.03,4.655 5.03,7.251 2.799,9.308 0,9.308 H -2.107 V 0 Z M -3.719,10.59 H 0 C 3.666,10.59 6.641,7.932 6.641,4.655 6.641,1.379 3.666,-1.281 0,-1.281 h -3.719 z" style="fill:#ffffff;fill-opacity:1;fill-rule:nonzero;stroke:none" transform="matrix(1.3333333,0,0,-1.3333333,529.3548,606.3588)" clip-path="url(#clipPath24)"></path>
    <path id="path25" d="M 0,0 V -4.006 H 4.994 V -5.303 H 0 v -4.005 h 5.738 v -1.282 h -7.35 V 1.281 h 7.35 V 0 Z" style="fill:#ffffff;fill-opacity:1;fill-rule:nonzero;stroke:none" transform="matrix(1.3333333,0,0,-1.3333333,555.61907,593.94773)" clip-path="url(#clipPath26)"></path>
    <path id="path27" d="M 0,0 1.168,1.06 C 1.7,-0.126 3.24,-0.918 5.064,-0.918 c 1.577,0 2.816,0.554 2.834,1.884 C 7.916,2.501 6.304,3.055 4.622,3.625 2.78,4.243 0.85,4.89 0.85,6.806 c 0,2.01 1.86,3.088 4.09,3.088 2.055,0 3.614,-0.697 4.499,-1.647 L 8.359,7.267 C 7.757,8.074 6.623,8.643 4.976,8.643 3.63,8.643 2.479,8.105 2.479,6.917 2.479,5.746 3.86,5.24 5.402,4.717 7.331,4.037 9.527,3.276 9.527,1.044 9.527,-1.235 7.544,-2.294 5.011,-2.294 2.833,-2.294 0.92,-1.346 0,0" style="fill:#ffffff;fill-opacity:1;fill-rule:nonzero;stroke:none" transform="matrix(1.3333333,0,0,-1.3333333,577.77227,605.218)" clip-path="url(#clipPath28)"></path>
    <path id="path29" d="m 454.265,347.821 h 1.612 V 335.95 h -1.612 z" style="fill:#ffffff;fill-opacity:1;fill-rule:nonzero;stroke:none" transform="matrix(1.3333333,0,0,-1.3333333,0,1056)" clip-path="url(#clipPath30)"></path>
    <path id="path31" d="m 0,0 c 0,-2.913 2.355,-4.764 5.242,-4.764 0.814,0 1.612,0.175 2.337,0.49 v 3.436 H 4.498 v 1.297 h 4.516 v -5.587 c -1.098,-0.618 -2.408,-1.013 -3.79,-1.013 -3.701,0 -6.729,2.47 -6.729,6.141 0,3.689 3.028,6.143 6.693,6.143 1.399,0 2.728,-0.397 3.826,-1.013 V 3.325 C 8.093,4.227 6.676,4.766 5.242,4.766 2.355,4.766 0,2.913 0,0" style="fill:#ffffff;fill-opacity:1;fill-rule:nonzero;stroke:none" transform="matrix(1.3333333,0,0,-1.3333333,625.57253,600.2168)" clip-path="url(#clipPath32)"></path>
    <path id="path33" d="m 0,0 v -11.871 h -1.54 l -7.97,9.545 v -9.545 h -1.612 V 0 h 1.541 l 7.987,-9.559 V 0 Z" style="fill:#ffffff;fill-opacity:1;fill-rule:nonzero;stroke:none" transform="matrix(1.3333333,0,0,-1.3333333,668.2468,592.2392)" clip-path="url(#clipPath34)"></path>
    <path id="path35" d="m 0,0 1.168,1.06 c 0.531,-1.186 2.073,-1.978 3.897,-1.978 1.576,0 2.815,0.554 2.834,1.884 C 7.916,2.501 6.304,3.055 4.623,3.625 2.78,4.243 0.851,4.89 0.851,6.806 c 0,2.01 1.858,3.088 4.089,3.088 2.054,0 3.614,-0.697 4.499,-1.647 L 8.358,7.267 C 7.756,8.074 6.624,8.643 4.975,8.643 3.631,8.643 2.48,8.105 2.48,6.917 2.48,5.746 3.861,5.24 5.402,4.717 7.331,4.037 9.528,3.276 9.528,1.044 9.528,-1.235 7.544,-2.294 5.012,-2.294 2.833,-2.294 0.92,-1.346 0,0" style="fill:#ffffff;fill-opacity:1;fill-rule:nonzero;stroke:none" transform="matrix(1.3333333,0,0,-1.3333333,683.29573,605.218)" clip-path="url(#clipPath36)"></path>
    <path id="path37" d="m 393.204,375.15 h 2.926 v -23.93 h -2.926 z" style="fill:#f4f4f4;fill-opacity:1;fill-rule:nonzero;stroke:none" transform="matrix(1.3333333,0,0,-1.3333333,0,1056)" clip-path="url(#clipPath38)"></path>
    <path id="path39" d="m 0,0 v -23.93 h -2.893 v 19.718 l -9.293,-13.847 -9.197,13.815 V -23.93 h -2.925 V 0 h 3.119 L -12.154,-13.337 -3.087,0 Z" style="fill:#f4f4f4;fill-opacity:1;fill-rule:nonzero;stroke:none" transform="matrix(1.3333333,0,0,-1.3333333,567.01493,555.8004)" clip-path="url(#clipPath40)"></path>
    <path id="path41" d="M 0,0 C 0,2.426 -1.961,4.18 -4.244,4.18 H -10 v -8.391 h 5.756 C -1.929,-4.211 0,-2.52 0,0 m 2.702,0.033 c 0,-3.733 -3.023,-6.669 -6.785,-6.669 H -10 v -10.529 h -2.926 v 23.93 h 8.843 c 3.762,0 6.785,-3.031 6.785,-6.732" style="fill:#f4f4f4;fill-opacity:1;fill-rule:nonzero;stroke:none" transform="matrix(1.3333333,0,0,-1.3333333,590.67653,564.82027)" clip-path="url(#clipPath42)"></path>
    <path id="path43" d="M 0,0 C 2.315,0 4.147,1.851 4.147,4.148 4.147,6.445 2.283,8.264 0,8.264 H -5.853 V 0 Z M 7.459,-13.081 H 4.18 l -5.756,10.689 h -4.277 v -10.689 h -2.926 v 23.93 h 8.843 c 3.73,0 6.785,-3 6.785,-6.765 0,-3.222 -2.38,-5.806 -5.467,-6.317 z" style="fill:#f4f4f4;fill-opacity:1;fill-rule:nonzero;stroke:none" transform="matrix(1.3333333,0,0,-1.3333333,610.3524,570.26547)" clip-path="url(#clipPath44)"></path>
    <path id="path45" d="m 0,0 v -8.072 h 9.068 v -2.616 H 0 v -8.072 h 10.419 v -2.585 H -2.926 V 2.585 H 10.419 V 0 Z" style="fill:#f4f4f4;fill-opacity:1;fill-rule:nonzero;stroke:none" transform="matrix(1.3333333,0,0,-1.3333333,627.92707,559.24707)" clip-path="url(#clipPath46)"></path>
    <path id="path47" d="m 0,0 2.122,2.137 c 0.965,-2.392 3.762,-3.987 7.073,-3.987 2.863,0 5.113,1.116 5.145,3.796 0.033,3.095 -2.893,4.212 -5.948,5.36 -3.344,1.245 -6.849,2.553 -6.849,6.413 0,4.052 3.377,6.222 7.428,6.222 3.73,0 6.559,-1.404 8.167,-3.318 l -1.962,-1.979 c -1.093,1.627 -3.151,2.776 -6.141,2.776 -2.444,0 -4.534,-1.084 -4.534,-3.478 0,-2.361 2.508,-3.382 5.306,-4.435 3.504,-1.371 7.492,-2.902 7.492,-7.402 0,-4.594 -3.602,-6.731 -8.199,-6.731 C 5.145,-4.626 1.672,-2.713 0,0" style="fill:#f4f4f4;fill-opacity:1;fill-rule:nonzero;stroke:none" transform="matrix(1.3333333,0,0,-1.3333333,645.8464,581.9632)" clip-path="url(#clipPath48)"></path>
    <path id="path49" d="m 0,0 2.122,2.137 c 0.965,-2.392 3.762,-3.987 7.074,-3.987 2.862,0 5.112,1.116 5.145,3.796 0.032,3.095 -2.894,4.212 -5.949,5.36 -3.344,1.245 -6.849,2.553 -6.849,6.413 0,4.052 3.377,6.222 7.428,6.222 3.73,0 6.559,-1.404 8.167,-3.318 l -1.962,-1.979 c -1.093,1.627 -3.151,2.776 -6.141,2.776 -2.444,0 -4.534,-1.084 -4.534,-3.478 0,-2.361 2.508,-3.382 5.306,-4.435 3.505,-1.371 7.492,-2.902 7.492,-7.402 0,-4.594 -3.602,-6.731 -8.199,-6.731 C 5.145,-4.626 1.672,-2.713 0,0" style="fill:#f4f4f4;fill-opacity:1;fill-rule:nonzero;stroke:none" transform="matrix(1.3333333,0,0,-1.3333333,672.80987,581.9632)" clip-path="url(#clipPath50)"></path>
    <path id="path420" d="m 393.204,375.193 h 2.926 v -23.93 h -2.926 z" style="fill:#f4f4f4;fill-opacity:1;fill-rule:nonzero;stroke:none" transform="matrix(1.3333333,0,0,-1.3333333,0,1056)" clip-path="url(#clipPath421)"></path>
    <path id="path422" d="m 0,0 v -23.93 h -2.893 v 19.718 l -9.293,-13.847 -9.197,13.815 V -23.93 h -2.925 V 0 h 3.119 L -12.154,-13.337 -3.087,0 Z" style="fill:#f4f4f4;fill-opacity:1;fill-rule:nonzero;stroke:none" transform="matrix(1.3333333,0,0,-1.3333333,567.01493,555.74307)" clip-path="url(#clipPath423)"></path>
    <path id="path424" d="M 0,0 C 0,2.426 -1.961,4.18 -4.244,4.18 H -10 v -8.391 h 5.756 C -1.929,-4.211 0,-2.52 0,0 m 2.702,0.033 c 0,-3.733 -3.023,-6.669 -6.785,-6.669 H -10 v -10.529 h -2.926 v 23.93 h 8.843 c 3.762,0 6.785,-3.031 6.785,-6.732" style="fill:#f4f4f4;fill-opacity:1;fill-rule:nonzero;stroke:none" transform="matrix(1.3333333,0,0,-1.3333333,590.67653,564.7628)" clip-path="url(#clipPath425)"></path>
    <path id="path426" d="M 0,0 C 2.315,0 4.147,1.851 4.147,4.148 4.147,6.445 2.283,8.264 0,8.264 H -5.853 V 0 Z M 7.459,-13.081 H 4.18 l -5.756,10.689 h -4.277 v -10.689 h -2.926 v 23.93 h 8.843 c 3.73,0 6.785,-3 6.785,-6.765 0,-3.222 -2.38,-5.806 -5.467,-6.317 z" style="fill:#f4f4f4;fill-opacity:1;fill-rule:nonzero;stroke:none" transform="matrix(1.3333333,0,0,-1.3333333,610.3524,570.208)" clip-path="url(#clipPath427)"></path>
    <path id="path428" d="m 0,0 v -8.072 h 9.068 v -2.616 H 0 v -8.072 h 10.419 v -2.585 H -2.926 V 2.585 H 10.419 V 0 Z" style="fill:#f4f4f4;fill-opacity:1;fill-rule:nonzero;stroke:none" transform="matrix(1.3333333,0,0,-1.3333333,627.92707,559.18973)" clip-path="url(#clipPath429)"></path>
    <path id="path430" d="m 0,0 2.122,2.137 c 0.965,-2.392 3.762,-3.987 7.073,-3.987 2.863,0 5.113,1.116 5.145,3.796 0.033,3.095 -2.893,4.212 -5.948,5.36 -3.344,1.245 -6.849,2.553 -6.849,6.413 0,4.052 3.377,6.222 7.428,6.222 3.73,0 6.559,-1.404 8.167,-3.318 l -1.962,-1.979 c -1.093,1.627 -3.151,2.776 -6.141,2.776 -2.444,0 -4.534,-1.084 -4.534,-3.478 0,-2.361 2.508,-3.382 5.306,-4.435 3.504,-1.371 7.492,-2.902 7.492,-7.402 0,-4.594 -3.602,-6.731 -8.199,-6.731 C 5.145,-4.626 1.672,-2.713 0,0" style="fill:#f4f4f4;fill-opacity:1;fill-rule:nonzero;stroke:none" transform="matrix(1.3333333,0,0,-1.3333333,645.8464,581.90587)" clip-path="url(#clipPath431)"></path>
    <path id="path432" d="m 0,0 h 0.482 c 0.215,0 0.382,0.167 0.382,0.382 0,0.208 -0.167,0.375 -0.382,0.375 H 0 Z M 0.77,-0.328 1.387,-1.46 H 0.958 L 0.355,-0.382 H 0 V -1.46 h -0.382 v 2.599 h 0.864 c 0.429,0 0.771,-0.335 0.771,-0.757 0,-0.322 -0.201,-0.596 -0.483,-0.71 m 1.715,0.167 c 0,1.206 -0.958,2.164 -2.17,2.164 -1.206,0 -2.164,-0.958 -2.164,-2.164 0,-1.206 0.958,-2.164 2.164,-2.164 1.212,0 2.17,0.958 2.17,2.164 m 0.409,0 c 0,-1.42 -1.159,-2.579 -2.579,-2.579 -1.42,0 -2.579,1.159 -2.579,2.579 0,1.42 1.159,2.579 2.579,2.579 1.42,0 2.579,-1.159 2.579,-2.579" style="fill:#ffffff;fill-opacity:1;fill-rule:nonzero;stroke:none" transform="matrix(1.3333333,0,0,-1.3333333,702.83427,558.21027)" clip-path="url(#clipPath433)"></path>
  </g>
</svg>